<svg xmlns="http://www.w3.org/2000/svg" width="56" height="56" viewBox="0 0 56 56" preserveAspectRatio="xMinYMid" aria-hidden="true" focusable="false"><path d="M45.1,49.84a5.15,5.15,0,1,1-3-4.68,5.14,5.14,0,0,1,3,4.68M10.9,8.17V7a2.25,2.25,0,0,1,2.24-2.25H19.4a2.13,2.13,0,0,1,0-.35V3.24A2.25,2.25,0,0,1,21.65,1H34.06a2.25,2.25,0,0,1,2.25,2.24V4.4a2.13,2.13,0,0,1,0,.35H40.7A2.25,2.25,0,0,1,42.93,7V8.17a2.25,2.25,0,0,1-2.24,2.25H13.13A2.25,2.25,0,0,1,10.9,8.17M40,42.83a7.21,7.21,0,0,1,2.22.36L44,14.48a2.19,2.19,0,0,0-2.2-2.18H13.68a2.18,2.18,0,0,0-2.24,2.12v.06l2.24,35.85a2.43,2.43,0,0,0,2.25,2.44H33.59a7,7,0,0,1-.65-3,7,7,0,0,1,7-7" fill="#222"/></svg>
