<?xml version="1.0" encoding="utf-8"?>
<!-- Generator: Adobe Illustrator 24.1.3, SVG Export Plug-In . SVG Version: 6.00 Build 0)  -->
<svg version="1.1" id="Layer_1" xmlns="http://www.w3.org/2000/svg" xmlns:xlink="http://www.w3.org/1999/xlink" x="0px" y="0px"
	 width="214" height="72" viewBox="0 0 1111.77 371.84" style="enable-background:new 0 0 1111.77 371.84;" xml:space="preserve">
<style type="text/css">
	.st0{fill:url(#SVGID_1_);}
	.st1{fill:url(#SVGID_2_);}
	.st2{fill:url(#SVGID_3_);}
	.st3{fill:url(#SVGID_4_);}
	.st4{fill:url(#SVGID_5_);}
	.st5{fill:url(#SVGID_6_);}
</style>
<g>
	
		<linearGradient id="SVGID_1_" gradientUnits="userSpaceOnUse" x1="128.7751" y1="215.8816" x2="176.3757" y2="215.8816" gradientTransform="matrix(1 4.348204e-03 -4.348204e-03 1 -1.1635 -4.4022)">
		<stop  offset="1.178262e-03" style="stop-color:#234E7B"/>
		<stop  offset="0.9996" style="stop-color:#386092"/>
	</linearGradient>
	<path class="st0" d="M136.76,254.84c0.52,1.04,1.07,2.07,1.63,3.09c14.57-0.75,27.73-8.23,35.76-20.21
		c-0.23-0.43-0.46-0.87-0.68-1.31c-8.16-16.25-7.21-34.74,0.91-49.61c-4.21-6.41-10.07-11.84-17.37-15.58
		c-5.75-2.95-11.88-4.62-18.25-4.98c-2.9,5.2-5.33,10.7-7.25,16.48C123.58,206.68,125.44,232.29,136.76,254.84z"/>
	
		<linearGradient id="SVGID_2_" gradientUnits="userSpaceOnUse" x1="189.3456" y1="215.889" x2="317.8291" y2="215.889" gradientTransform="matrix(1 4.348204e-03 -4.348204e-03 1 -1.1635 -4.4022)">
		<stop  offset="1.178262e-03" style="stop-color:#234E7B"/>
		<stop  offset="0.9996" style="stop-color:#386092"/>
	</linearGradient>
	<path class="st1" d="M305.63,170.07c-11.32-22.55-30.75-39.35-54.7-47.29c-20.88-6.92-43.03-6.39-63.3,1.36
		c14.74,8.62,26.88,20.6,35.58,34.97c18.81,0.74,36.69,11.41,45.72,29.39c13.21,26.32,2.55,58.47-23.77,71.68
		c-7.22,3.62-14.87,5.45-22.46,5.65c-8.95,14.48-21.21,26.31-35.8,34.66c1.5,0.58,3.02,1.13,4.57,1.64
		c23.95,7.94,49.57,6.08,72.12-5.24c22.55-11.32,39.35-30.75,47.29-54.7C318.82,218.23,316.96,192.62,305.63,170.07z"/>
</g>
<g>
	
		<linearGradient id="SVGID_3_" gradientUnits="userSpaceOnUse" x1="134.8184" y1="154.5763" x2="219.1212" y2="154.5763" gradientTransform="matrix(1 4.348204e-03 -4.348204e-03 1 -1.1635 -4.4022)">
		<stop  offset="1.177743e-03" style="stop-color:#9D1920"/>
		<stop  offset="1" style="stop-color:#7F1724"/>
	</linearGradient>
	<path class="st2" d="M217.23,163.68c-8.97-15.12-22.03-27.44-38.05-35.66c-12.98-6.66-27.01-10.16-41.18-10.44
		c-6.34,12.55-6.82,27.79-0.2,41.14c7.65,0.24,15.37,2.13,22.63,5.85c9.04,4.64,16.19,11.51,21.13,19.6
		c7.05-0.39,13.95-2.42,20.12-5.94C208.03,174.62,213.3,169.66,217.23,163.68z"/>
	
		<linearGradient id="SVGID_4_" gradientUnits="userSpaceOnUse" x1="43.6312" y1="226.3968" x2="231.5736" y2="226.3968" gradientTransform="matrix(1 4.348204e-03 -4.348204e-03 1 -1.1635 -4.4022)">
		<stop  offset="1.177743e-03" style="stop-color:#9D1920"/>
		<stop  offset="1" style="stop-color:#7F1724"/>
	</linearGradient>
	<path class="st3" d="M181.4,240.29c-14.5,23.35-44.84,32.07-69.72,19.31c-26.2-13.44-36.58-45.69-23.14-71.89
		c0.19-0.38,0.39-0.75,0.59-1.12c-8.1-15.05-12.21-31.57-12.18-48.27c-10.27,8.22-18.78,18.59-24.96,30.65
		c-11.52,22.46-13.6,48.05-5.87,72.07c7.73,24.02,24.36,43.6,46.81,55.11c22.46,11.52,48.05,13.6,72.07,5.87
		c24.02-7.73,43.59-24.36,55.11-46.81c4.63-9.02,7.73-18.55,9.29-28.28C214.68,235.31,198.14,239.9,181.4,240.29z"/>
</g>
<g>
	
		<linearGradient id="SVGID_5_" gradientUnits="userSpaceOnUse" x1="177.386" y1="203.2574" x2="261.7013" y2="203.2574" gradientTransform="matrix(1 4.348204e-03 -4.348204e-03 1 -1.1635 -4.4022)">
		<stop  offset="0" style="stop-color:#6C9A36"/>
		<stop  offset="1" style="stop-color:#008C49"/>
	</linearGradient>
	<path class="st4" d="M205.39,184.73c-7.95,4.53-16.58,6.78-25.13,6.97c-6.31,12.49-6.87,27.68-0.21,41.14
		c15.87-0.16,31.51-4.35,45.68-12.42c14.17-8.08,25.75-19.41,33.98-32.98c-7.86-12.14-20.93-19.83-35.5-20.79
		C219.68,173.91,213.34,180.2,205.39,184.73z"/>
	
		<linearGradient id="SVGID_6_" gradientUnits="userSpaceOnUse" x1="86.2099" y1="131.4361" x2="274.1336" y2="131.4361" gradientTransform="matrix(1 4.348204e-03 -4.348204e-03 1 -1.1635 -4.4022)">
		<stop  offset="0" style="stop-color:#6C9A36"/>
		<stop  offset="1" style="stop-color:#008C49"/>
	</linearGradient>
	<path class="st5" d="M124.42,180.37c1.97-5.93,4.44-11.6,7.38-16.98c-13.5-25.37-4.41-57.14,20.71-71.46
		c25.12-14.31,57.07-5.94,72.02,18.58c9.73,0.33,19.39,2.06,28.75,5.16c6.73,2.23,13.13,5.12,19.13,8.59
		c-1.71-11.36-5.52-22.43-11.38-32.71c-12.49-21.93-32.78-37.67-57.12-44.34c-24.34-6.67-49.82-3.46-71.74,9.03
		c-21.93,12.5-37.67,32.78-44.34,57.12c-6.67,24.34-3.46,49.82,9.03,71.75c5.86,10.28,13.44,19.19,22.34,26.46
		C119.3,201.1,121.03,190.59,124.42,180.37z"/>
</g>
<g>
	<path d="M480.99,73.14l-14.16,55.56h-15.4l-8.98-34.36l-8.72,34.36h-15.4l-14.16-55.56h14.58l7.7,37.27l9.39-37.27h13.94l8.9,37.27
		l8.12-37.27H480.99z"/>
	<path d="M508.75,129.82c-7.96,0-14.07-1.89-18.32-5.67c-4.24-3.78-6.37-9.17-6.37-16.16c0-6.84,1.98-12.3,5.94-16.38
		c3.96-4.08,9.49-6.12,16.61-6.12c6.46,0,11.32,1.73,14.58,5.19c3.26,3.46,4.88,8.41,4.88,14.85v4.7h-28.82
		c0.13,1.94,0.54,3.56,1.24,4.87s1.63,2.34,2.78,3.12c1.13,0.77,2.44,1.32,3.94,1.66c1.5,0.34,3.14,0.5,4.92,0.5
		c1.53,0,3.03-0.17,4.51-0.5s2.83-0.78,4.06-1.32c1.08-0.47,2.07-0.98,2.99-1.53c0.91-0.55,1.66-1.03,2.24-1.46h1.39v10.78
		c-1.08,0.42-2.06,0.82-2.95,1.18c-0.89,0.36-2.11,0.73-3.66,1.1c-1.43,0.37-2.9,0.67-4.41,0.88
		C512.78,129.71,510.93,129.82,508.75,129.82z M513.11,102.36c-0.08-2.76-0.72-4.86-1.94-6.31c-1.21-1.44-3.07-2.16-5.58-2.16
		c-2.55,0-4.55,0.76-5.99,2.28c-1.44,1.52-2.23,3.58-2.39,6.19H513.11z"/>
	<path d="M545.68,129.86c-3.11,0-6.04-0.34-8.81-1.01s-5.05-1.46-6.86-2.35v-11.04h1.09c0.63,0.47,1.34,0.99,2.14,1.57
		c0.8,0.57,1.92,1.17,3.34,1.79c1.23,0.57,2.61,1.06,4.15,1.47c1.54,0.41,3.21,0.62,5.02,0.62c1.85,0,3.49-0.29,4.9-0.86
		c1.41-0.57,2.12-1.48,2.12-2.72c0-0.97-0.33-1.7-0.98-2.2c-0.65-0.5-1.92-0.97-3.79-1.42c-1-0.25-2.27-0.52-3.79-0.8
		c-1.53-0.29-2.88-0.62-4.06-0.99c-3.31-1.02-5.79-2.53-7.46-4.53c-1.67-2-2.5-4.63-2.5-7.89c0-1.87,0.43-3.62,1.3-5.28
		c0.86-1.65,2.13-3.13,3.81-4.42c1.68-1.27,3.75-2.28,6.22-3.02c2.47-0.75,5.25-1.12,8.36-1.12c2.96,0,5.67,0.29,8.15,0.88
		c2.48,0.58,4.57,1.29,6.27,2.11v10.6h-1.05c-0.45-0.35-1.16-0.81-2.14-1.4c-0.98-0.58-1.93-1.09-2.86-1.51
		c-1.1-0.5-2.34-0.91-3.7-1.23c-1.37-0.32-2.76-0.49-4.19-0.49c-1.9,0-3.51,0.32-4.83,0.97c-1.32,0.65-1.97,1.51-1.97,2.57
		c0,0.95,0.33,1.69,0.98,2.24c0.65,0.55,2.07,1.08,4.25,1.6c1.13,0.27,2.42,0.54,3.89,0.8c1.46,0.26,2.87,0.62,4.23,1.06
		c3.03,0.97,5.33,2.39,6.89,4.27c1.56,1.88,2.35,4.37,2.35,7.48c0,1.97-0.46,3.84-1.39,5.62c-0.93,1.78-2.24,3.28-3.94,4.5
		c-1.8,1.32-3.93,2.34-6.37,3.06C552.01,129.5,549.09,129.86,545.68,129.86z"/>
	<path d="M588.59,129.52c-5.36,0-9.26-1.09-11.7-3.28c-2.44-2.19-3.66-5.77-3.66-10.75V95.9h-5.03v-9.1h5.03V74.82h13.15V86.8h12.66
		v9.1h-12.66v14.85c0,1.47,0.01,2.75,0.04,3.84c0.03,1.09,0.23,2.08,0.6,2.95c0.35,0.87,0.97,1.56,1.86,2.07
		c0.89,0.51,2.19,0.76,3.89,0.76c0.7,0,1.62-0.15,2.76-0.45c1.14-0.3,1.93-0.57,2.39-0.82h1.13v9.22c-1.43,0.37-2.94,0.67-4.55,0.88
		C592.88,129.41,590.92,129.52,588.59,129.52z"/>
	<path d="M456.75,220.39h-13.53l-21.57-38.73v38.73h-12.85v-55.56h17.24l17.85,31.83v-31.83h12.85V220.39z"/>
	<path d="M507.85,199.46c0,6.89-1.9,12.32-5.69,16.29c-3.8,3.97-9.16,5.95-16.1,5.95c-6.89,0-12.24-1.98-16.06-5.95
		c-3.82-3.97-5.73-9.4-5.73-16.29c0-6.96,1.91-12.42,5.73-16.36c3.82-3.94,9.17-5.91,16.06-5.91c6.91,0,12.27,1.98,16.08,5.95
		C505.95,187.11,507.85,192.55,507.85,199.46z M494.36,199.54c0-2.49-0.21-4.56-0.62-6.21c-0.41-1.65-0.98-2.98-1.71-3.97
		c-0.78-1.04-1.65-1.77-2.63-2.18c-0.98-0.41-2.09-0.62-3.34-0.62c-1.18,0-2.24,0.18-3.19,0.54c-0.95,0.36-1.83,1.05-2.63,2.07
		c-0.75,0.97-1.35,2.3-1.8,3.99c-0.45,1.69-0.68,3.82-0.68,6.38c0,2.56,0.21,4.63,0.64,6.21c0.43,1.58,0.98,2.84,1.65,3.79
		c0.7,0.97,1.58,1.68,2.63,2.13c1.05,0.45,2.22,0.67,3.49,0.67c1.05,0,2.12-0.22,3.21-0.67c1.09-0.45,1.96-1.12,2.61-2.01
		c0.78-1.07,1.37-2.36,1.77-3.86C494.16,204.28,494.36,202.2,494.36,199.54z"/>
	<path d="M543.16,190.84h-1.09c-0.5-0.17-1.23-0.3-2.18-0.39c-0.95-0.09-2-0.13-3.16-0.13c-1.38,0-2.82,0.2-4.34,0.6
		c-1.52,0.4-2.99,0.87-4.41,1.42v28.06h-13.15v-41.9h13.15v6.01c0.6-0.55,1.43-1.24,2.5-2.07c1.06-0.83,2.03-1.5,2.91-2
		c0.95-0.57,2.06-1.06,3.33-1.47c1.26-0.41,2.46-0.62,3.59-0.62c0.43,0,0.9,0.01,1.43,0.04c0.53,0.02,1,0.06,1.43,0.11V190.84z"/>
	<path d="M564.35,221.22c-5.36,0-9.26-1.09-11.7-3.28c-2.44-2.19-3.66-5.77-3.66-10.75V187.6h-5.03v-9.1h5.03v-11.98h13.15v11.98
		h12.66v9.1h-12.66v14.85c0,1.47,0.01,2.75,0.04,3.84c0.03,1.09,0.23,2.08,0.6,2.95c0.35,0.87,0.97,1.56,1.86,2.07
		c0.89,0.51,2.19,0.76,3.89,0.76c0.7,0,1.62-0.15,2.76-0.45c1.14-0.3,1.93-0.57,2.39-0.82h1.13v9.22c-1.43,0.37-2.94,0.67-4.55,0.88
		C568.65,221.11,566.68,221.22,564.35,221.22z"/>
	<path d="M619.69,220.39h-13.22v-20.78c0-1.69-0.07-3.38-0.21-5.06c-0.14-1.68-0.39-2.92-0.77-3.71c-0.45-0.95-1.1-1.62-1.95-2.03
		c-0.85-0.41-1.99-0.62-3.42-0.62c-1.08,0-2.17,0.2-3.27,0.6c-1.1,0.4-2.28,1.03-3.53,1.9v29.7h-13.15v-58.06h13.15v20.78
		c2.15-1.82,4.25-3.23,6.29-4.25c2.04-1.02,4.3-1.53,6.78-1.53c4.31,0,7.6,1.35,9.88,4.05c2.28,2.7,3.42,6.61,3.42,11.73V220.39z"/>
	<path d="M652.68,215.95c-0.9,0.75-1.71,1.42-2.42,2.01c-0.71,0.6-1.67,1.19-2.87,1.79c-1.18,0.57-2.32,1.01-3.44,1.31
		c-1.12,0.3-2.67,0.45-4.68,0.45c-3.73,0-6.83-1.24-9.3-3.73c-2.47-2.49-3.7-5.62-3.7-9.4c0-3.11,0.63-5.62,1.88-7.54
		c1.25-1.92,3.06-3.43,5.41-4.55c2.38-1.14,5.22-1.94,8.53-2.39c3.31-0.45,6.86-0.8,10.67-1.04v-0.22c0-2.31-0.86-3.91-2.57-4.79
		c-1.72-0.88-4.29-1.32-7.72-1.32c-1.55,0-3.37,0.28-5.45,0.84c-2.08,0.56-4.11,1.27-6.09,2.15h-1.13v-10.11
		c1.3-0.37,3.41-0.81,6.31-1.32c2.91-0.51,5.84-0.76,8.79-0.76c7.26,0,12.55,1.2,15.87,3.6c3.32,2.4,4.98,6.06,4.98,10.99v28.51
		h-13.07V215.95z M652.68,209.46v-8.73c-2.23,0.22-4.03,0.42-5.41,0.58c-1.38,0.16-2.73,0.48-4.06,0.95c-1.15,0.4-2.05,1-2.69,1.81
		c-0.64,0.81-0.96,1.88-0.96,3.23c0,1.97,0.53,3.31,1.6,4.05c1.06,0.73,2.64,1.1,4.71,1.1c1.15,0,2.33-0.26,3.53-0.78
		C650.61,211.14,651.7,210.41,652.68,209.46z"/>
	<path d="M725.9,220.39v-20.93c0-2.06-0.04-3.81-0.11-5.22c-0.08-1.42-0.3-2.57-0.68-3.47c-0.38-0.9-0.96-1.55-1.75-1.96
		c-0.79-0.41-1.9-0.62-3.33-0.62c-1,0-1.99,0.22-2.97,0.65c-0.98,0.44-2.04,1.05-3.19,1.85v29.7h-13.22v-20.93
		c0-2.04-0.04-3.77-0.13-5.2c-0.09-1.43-0.32-2.59-0.7-3.49c-0.38-0.9-0.96-1.55-1.75-1.96c-0.79-0.41-1.88-0.62-3.29-0.62
		c-1.08,0-2.13,0.25-3.16,0.75c-1.03,0.5-2.03,1.08-3.01,1.75v29.7h-13.15v-41.9h13.15v4.63c2.15-1.82,4.18-3.23,6.09-4.25
		c1.9-1.02,4.04-1.53,6.42-1.53c2.58,0,4.85,0.61,6.8,1.83c1.95,1.22,3.44,3.04,4.47,5.45c2.53-2.34,4.91-4.14,7.16-5.39
		c2.24-1.26,4.52-1.88,6.82-1.88c1.95,0,3.71,0.31,5.26,0.93c1.55,0.62,2.87,1.55,3.94,2.8c1.18,1.34,2.06,2.94,2.65,4.79
		c0.59,1.85,0.88,4.27,0.88,7.26v27.27H725.9z"/>
	<path d="M790.22,198.87c0,6.69-1.71,12.09-5.13,16.19c-3.42,4.1-7.63,6.16-12.64,6.16c-2.1,0-3.93-0.24-5.49-0.71
		c-1.55-0.47-3.21-1.21-4.96-2.2v17.46h-13.15v-57.27h13.15v4.37c1.93-1.64,3.89-2.97,5.9-3.99c2-1.02,4.32-1.53,6.95-1.53
		c4.88,0,8.67,1.93,11.35,5.78C788.88,186.98,790.22,192.22,790.22,198.87z M776.77,199.13c0-4.08-0.63-7.04-1.9-8.88
		c-1.27-1.84-3.24-2.76-5.92-2.76c-1.18,0-2.35,0.19-3.51,0.56c-1.16,0.37-2.31,0.93-3.44,1.68v21.08c0.7,0.3,1.47,0.51,2.31,0.63
		c0.84,0.12,1.84,0.19,2.99,0.19c3.21,0,5.59-1.04,7.14-3.12C776,206.43,776.77,203.31,776.77,199.13z"/>
	<path d="M813.44,221.22c-5.36,0-9.26-1.09-11.7-3.28c-2.44-2.19-3.66-5.77-3.66-10.75V187.6h-5.03v-9.1h5.03v-11.98h13.15v11.98
		h12.66v9.1h-12.66v14.85c0,1.47,0.01,2.75,0.04,3.84c0.03,1.09,0.23,2.08,0.6,2.95c0.35,0.87,0.97,1.56,1.86,2.07
		c0.89,0.51,2.19,0.76,3.89,0.76c0.7,0,1.62-0.15,2.76-0.45c1.14-0.3,1.93-0.57,2.39-0.82h1.13v9.22c-1.43,0.37-2.94,0.67-4.55,0.88
		C817.74,221.11,815.77,221.22,813.44,221.22z"/>
	<path d="M869.76,199.46c0,6.89-1.9,12.32-5.69,16.29c-3.8,3.97-9.16,5.95-16.1,5.95c-6.89,0-12.24-1.98-16.06-5.95
		c-3.82-3.97-5.73-9.4-5.73-16.29c0-6.96,1.91-12.42,5.73-16.36c3.82-3.94,9.17-5.91,16.06-5.91c6.91,0,12.27,1.98,16.08,5.95
		C867.86,187.11,869.76,192.55,869.76,199.46z M856.27,199.54c0-2.49-0.21-4.56-0.62-6.21c-0.41-1.65-0.98-2.98-1.71-3.97
		c-0.78-1.04-1.65-1.77-2.63-2.18c-0.98-0.41-2.09-0.62-3.34-0.62c-1.18,0-2.24,0.18-3.19,0.54c-0.95,0.36-1.83,1.05-2.63,2.07
		c-0.75,0.97-1.35,2.3-1.8,3.99c-0.45,1.69-0.68,3.82-0.68,6.38c0,2.56,0.21,4.63,0.64,6.21c0.43,1.58,0.98,2.84,1.65,3.79
		c0.7,0.97,1.58,1.68,2.63,2.13c1.05,0.45,2.22,0.67,3.49,0.67c1.05,0,2.12-0.22,3.21-0.67c1.09-0.45,1.96-1.12,2.61-2.01
		c0.78-1.07,1.37-2.36,1.77-3.86C856.07,204.28,856.27,202.2,856.27,199.54z"/>
	<path d="M916.27,220.39h-13.22v-20.78c0-1.69-0.07-3.38-0.21-5.06c-0.14-1.68-0.39-2.92-0.77-3.71c-0.45-0.95-1.1-1.62-1.95-2.03
		c-0.85-0.41-1.99-0.62-3.42-0.62c-1.08,0-2.17,0.2-3.27,0.6c-1.1,0.4-2.28,1.03-3.53,1.9v29.7h-13.15v-41.9h13.15v4.63
		c2.15-1.82,4.25-3.23,6.29-4.25c2.04-1.02,4.3-1.53,6.78-1.53c4.31,0,7.6,1.35,9.88,4.05c2.28,2.7,3.42,6.61,3.42,11.73V220.39z"/>
	<path d="M938.85,221.55c-3.11,0-6.04-0.34-8.81-1.01c-2.77-0.67-5.05-1.46-6.86-2.35v-11.04h1.09c0.63,0.47,1.34,0.99,2.14,1.57
		c0.8,0.57,1.92,1.17,3.34,1.79c1.23,0.57,2.61,1.06,4.15,1.47c1.54,0.41,3.21,0.62,5.02,0.62c1.85,0,3.49-0.29,4.9-0.86
		c1.41-0.57,2.12-1.48,2.12-2.72c0-0.97-0.33-1.7-0.98-2.2c-0.65-0.5-1.92-0.97-3.79-1.42c-1-0.25-2.27-0.52-3.79-0.8
		c-1.53-0.29-2.88-0.62-4.06-0.99c-3.31-1.02-5.79-2.53-7.46-4.53c-1.67-2-2.5-4.63-2.5-7.89c0-1.87,0.43-3.62,1.3-5.28
		c0.86-1.65,2.13-3.13,3.81-4.42c1.68-1.27,3.75-2.28,6.22-3.02c2.47-0.75,5.25-1.12,8.36-1.12c2.96,0,5.67,0.29,8.15,0.88
		c2.48,0.58,4.57,1.29,6.27,2.11v10.6h-1.05c-0.45-0.35-1.16-0.81-2.14-1.4c-0.98-0.58-1.93-1.09-2.86-1.51
		c-1.1-0.5-2.34-0.91-3.7-1.23c-1.37-0.32-2.76-0.49-4.19-0.49c-1.9,0-3.51,0.32-4.83,0.97c-1.32,0.65-1.97,1.51-1.97,2.57
		c0,0.95,0.33,1.69,0.98,2.24c0.65,0.55,2.07,1.08,4.25,1.6c1.13,0.27,2.42,0.54,3.89,0.8c1.46,0.26,2.87,0.62,4.23,1.06
		c3.03,0.97,5.33,2.39,6.89,4.27c1.56,1.88,2.35,4.37,2.35,7.48c0,1.97-0.46,3.84-1.39,5.62c-0.93,1.78-2.24,3.28-3.94,4.5
		c-1.8,1.32-3.93,2.34-6.37,3.06C945.18,221.19,942.26,221.55,938.85,221.55z"/>
	<path d="M1005.12,220.39H991.9v-20.78c0-1.69-0.07-3.38-0.21-5.06c-0.14-1.68-0.39-2.92-0.77-3.71c-0.45-0.95-1.1-1.62-1.95-2.03
		c-0.85-0.41-1.99-0.62-3.42-0.62c-1.08,0-2.17,0.2-3.27,0.6c-1.1,0.4-2.28,1.03-3.53,1.9v29.7H965.6v-58.06h13.15v20.78
		c2.15-1.82,4.25-3.23,6.29-4.25c2.04-1.02,4.3-1.53,6.78-1.53c4.31,0,7.6,1.35,9.88,4.05c2.28,2.7,3.42,6.61,3.42,11.73V220.39z"/>
	<path d="M1028.38,172.52h-13.9v-10.19h13.9V172.52z M1028,220.39h-13.15v-41.9H1028V220.39z"/>
	<path d="M1066.4,190.84h-1.09c-0.5-0.17-1.23-0.3-2.18-0.39c-0.95-0.09-2-0.13-3.16-0.13c-1.38,0-2.82,0.2-4.34,0.6
		c-1.52,0.4-2.99,0.87-4.41,1.42v28.06h-13.15v-41.9h13.15v6.01c0.6-0.55,1.43-1.24,2.5-2.07c1.06-0.83,2.03-1.5,2.91-2
		c0.95-0.57,2.06-1.06,3.33-1.47c1.26-0.41,2.46-0.62,3.59-0.62c0.43,0,0.9,0.01,1.43,0.04c0.53,0.02,1,0.06,1.43,0.11V190.84z"/>
	<path d="M1093.04,221.51c-7.96,0-14.07-1.89-18.32-5.67c-4.24-3.78-6.37-9.17-6.37-16.16c0-6.84,1.98-12.3,5.94-16.38
		c3.96-4.08,9.49-6.12,16.61-6.12c6.46,0,11.32,1.73,14.58,5.19c3.26,3.46,4.88,8.41,4.88,14.85v4.7h-28.82
		c0.13,1.94,0.54,3.56,1.24,4.87c0.7,1.31,1.63,2.34,2.78,3.12c1.13,0.77,2.44,1.32,3.94,1.66c1.5,0.34,3.14,0.5,4.92,0.5
		c1.53,0,3.03-0.17,4.51-0.5s2.83-0.78,4.06-1.32c1.08-0.47,2.07-0.98,2.99-1.53c0.91-0.55,1.66-1.03,2.24-1.46h1.39v10.78
		c-1.08,0.42-2.06,0.82-2.95,1.18c-0.89,0.36-2.11,0.73-3.66,1.1c-1.43,0.37-2.9,0.67-4.41,0.88
		C1097.06,221.41,1095.21,221.51,1093.04,221.51z M1097.39,194.05c-0.08-2.76-0.72-4.86-1.94-6.31c-1.21-1.44-3.07-2.16-5.58-2.16
		c-2.55,0-4.55,0.76-5.99,2.28c-1.44,1.52-2.23,3.58-2.39,6.19H1097.39z"/>
	<path d="M432.94,313.17c-8.39,0-15.05-2.52-19.99-7.56c-4.93-5.04-7.4-12.12-7.4-21.25c0-8.81,2.47-15.83,7.42-21.06
		c4.95-5.24,11.61-7.85,20.01-7.85c2.23,0,4.23,0.12,6.01,0.37c1.78,0.25,3.48,0.6,5.11,1.04c1.28,0.37,2.67,0.88,4.17,1.53
		c1.5,0.65,2.72,1.21,3.64,1.68v13.25h-1.43c-0.68-0.6-1.53-1.31-2.55-2.15c-1.03-0.83-2.19-1.65-3.49-2.44s-2.74-1.47-4.3-2.03
		c-1.57-0.56-3.2-0.84-4.9-0.84c-2.03,0-3.89,0.32-5.58,0.95c-1.69,0.63-3.3,1.73-4.83,3.3c-1.4,1.42-2.55,3.33-3.44,5.75
		c-0.89,2.41-1.33,5.26-1.33,8.54c0,3.46,0.46,6.36,1.39,8.71c0.93,2.35,2.14,4.25,3.64,5.69c1.45,1.39,3.07,2.4,4.87,3.02
		c1.79,0.62,3.57,0.93,5.35,0.93c1.85,0,3.62-0.3,5.3-0.91c1.68-0.61,3.09-1.29,4.25-2.03c1.25-0.77,2.35-1.55,3.31-2.35
		c0.95-0.8,1.78-1.5,2.48-2.13h1.28v13.06c-1.03,0.47-2.22,1.01-3.57,1.62s-2.74,1.13-4.17,1.55c-1.75,0.52-3.39,0.92-4.92,1.19
		S435.62,313.17,432.94,313.17z"/>
	<path d="M499.92,291.16c0,6.89-1.9,12.32-5.69,16.29c-3.8,3.97-9.16,5.95-16.1,5.95c-6.89,0-12.24-1.98-16.06-5.95
		c-3.82-3.97-5.73-9.4-5.73-16.29c0-6.96,1.91-12.42,5.73-16.36c3.82-3.94,9.17-5.91,16.06-5.91c6.91,0,12.27,1.98,16.08,5.95
		C498.02,278.8,499.92,284.24,499.92,291.16z M486.43,291.23c0-2.49-0.21-4.56-0.62-6.21c-0.41-1.65-0.98-2.98-1.71-3.97
		c-0.78-1.04-1.65-1.77-2.63-2.18c-0.98-0.41-2.09-0.62-3.34-0.62c-1.18,0-2.24,0.18-3.19,0.54c-0.95,0.36-1.83,1.05-2.63,2.07
		c-0.75,0.97-1.35,2.3-1.8,3.99s-0.68,3.82-0.68,6.38c0,2.56,0.21,4.63,0.64,6.21c0.43,1.58,0.98,2.84,1.65,3.79
		c0.7,0.97,1.58,1.68,2.63,2.13s2.22,0.67,3.49,0.67c1.05,0,2.12-0.22,3.21-0.67c1.09-0.45,1.96-1.12,2.61-2.01
		c0.78-1.07,1.37-2.36,1.77-3.86C486.23,295.98,486.43,293.9,486.43,291.23z"/>
	<path d="M546.1,312.09h-13.15v-4.63c-2.28,1.89-4.37,3.33-6.27,4.31c-1.9,0.98-4.17,1.47-6.8,1.47c-4.18,0-7.45-1.31-9.79-3.94
		c-2.34-2.62-3.51-6.57-3.51-11.85v-27.27h13.22v20.78c0,2.16,0.06,3.93,0.17,5.3c0.11,1.37,0.38,2.52,0.81,3.47
		c0.4,0.87,1.02,1.53,1.86,1.98c0.84,0.45,2.01,0.67,3.51,0.67c0.93,0,2.02-0.22,3.29-0.67c1.26-0.45,2.44-1.06,3.51-1.83v-29.7
		h13.15V312.09z"/>
	<path d="M595.69,312.09h-13.22v-20.78c0-1.69-0.07-3.38-0.21-5.06c-0.14-1.68-0.39-2.92-0.77-3.71c-0.45-0.95-1.1-1.62-1.95-2.03
		c-0.85-0.41-1.99-0.62-3.42-0.62c-1.08,0-2.17,0.2-3.27,0.6c-1.1,0.4-2.28,1.03-3.53,1.9v29.7h-13.15v-41.9h13.15v4.63
		c2.15-1.82,4.25-3.23,6.29-4.25c2.04-1.02,4.3-1.53,6.78-1.53c4.31,0,7.6,1.35,9.88,4.05c2.28,2.7,3.42,6.61,3.42,11.73V312.09z"/>
	<path d="M626.12,313.21c-3.48,0-6.67-0.44-9.56-1.31c-2.89-0.87-5.4-2.21-7.53-4.03c-2.1-1.82-3.74-4.1-4.92-6.85
		c-1.18-2.75-1.77-5.99-1.77-9.72c0-4,0.64-7.41,1.92-10.22c1.28-2.81,3.01-5.12,5.18-6.94c2.1-1.74,4.58-3.03,7.42-3.86
		c2.84-0.83,5.8-1.25,8.88-1.25c2.33,0,4.66,0.27,6.99,0.8c2.33,0.54,4.67,1.39,7.03,2.56v11.19h-1.69
		c-0.53-0.5-1.17-1.04-1.94-1.64c-0.76-0.6-1.6-1.14-2.5-1.64c-0.95-0.52-2.03-0.96-3.23-1.32c-1.2-0.36-2.54-0.54-4.02-0.54
		c-3.36,0-5.96,1.16-7.8,3.49c-1.84,2.33-2.76,5.45-2.76,9.38c0,4.2,0.98,7.34,2.95,9.4c1.97,2.06,4.58,3.1,7.83,3.1
		c1.65,0,3.11-0.19,4.36-0.56s2.33-0.82,3.23-1.34c0.88-0.52,1.63-1.06,2.25-1.62c0.63-0.56,1.16-1.06,1.62-1.51h1.69v11.19
		c-0.75,0.32-1.62,0.7-2.61,1.12c-0.99,0.42-2,0.77-3.02,1.04c-1.28,0.35-2.47,0.62-3.59,0.8
		C629.42,313.12,627.95,313.21,626.12,313.21z"/>
	<path d="M659.52,264.22h-13.9v-10.19h13.9V264.22z M659.14,312.09h-13.15v-41.9h13.15V312.09z"/>
	<path d="M682.36,312.09h-13.15v-58.06h13.15V312.09z"/>
</g>
<path d="M342.24,245.13c-2.05,2.9-3.46,6.3-4.08,9.89c-4.72,27.16-7.94,48.26-28.83,59.56c-13,7.03-27.4,7.85-40.53,3.5
	c-1.48,12.46-6.34,24.72-14.68,35c-18.2,22.43-44.99,21.93-69.21,14.65c-3.25-0.98-6.66-1.11-9.96-0.39
	c-24.91,5.46-44.09,10.15-61.58-6.64c-11.83-11.36-18.01-27.15-18.44-43.41c-12.79,3.97-27.06,3.28-40.45-3.06
	c-25.22-11.94-33.03-39.82-34.12-67.13c-0.15-3.66-1.08-7.24-2.72-10.43c-12.44-24.1-22.45-42.51-13.14-65.78
	c6.62-16.54,19.44-28.15,34.48-33.24c-6.89-11.85-10.32-26.41-8.88-41.7c2.81-29.76,24.86-46.31,48.46-55.72
	c3.16-1.26,6.01-3.31,8.31-5.99C104.2,14.03,117.3-1.92,140.5,0.67c15.27,1.71,28.44,10.21,37.47,22.6
	c8.22-10.55,19.76-18.41,33.38-21.57c26.89-6.25,48.16,11.48,63.65,33.01c2.08,2.88,4.75,5.21,7.8,6.76
	c23.01,11.73,40.99,20.37,45.87,45.19c3.5,17.81-0.84,35.54-10.55,49.25c15.65,4.61,29.7,16.5,37.68,33.95
	C368.06,196.64,357.56,223.46,342.24,245.13z M339.9,171.36c-7.26-15.87-20.02-26.67-34.25-30.86c8.82-12.47,12.77-28.58,9.59-44.77
	c-4.43-22.56-20.78-30.41-41.69-41.07c-2.77-1.41-5.2-3.52-7.09-6.15c-14.08-19.57-33.41-35.69-57.86-30
	c-12.38,2.88-22.87,10.02-30.34,19.61c-8.21-11.27-20.19-18.99-34.06-20.54c-21.09-2.36-33,12.15-48.76,30.51
	c-2.09,2.43-4.68,4.3-7.56,5.44c-21.45,8.55-41.5,23.6-44.05,50.65c-1.31,13.9,1.81,27.14,8.07,37.91
	c-13.67,4.63-25.33,15.18-31.34,30.22c-8.46,21.15,0.63,37.89,11.94,59.79c1.5,2.9,2.34,6.16,2.48,9.48
	c0.99,24.83,8.09,50.17,31.01,61.02c12.17,5.76,25.14,6.39,36.77,2.78c0.39,14.78,6.01,29.14,16.76,39.46
	c15.9,15.27,33.33,11,55.98,6.04c3-0.66,6.11-0.53,9.06,0.35c22.02,6.62,46.37,7.07,62.92-13.32c7.58-9.34,12-20.49,13.34-31.81
	c11.94,3.95,25.03,3.21,36.84-3.19c18.99-10.28,21.92-29.46,26.21-54.14c0.57-3.27,1.84-6.35,3.71-8.99
	C341.49,220.09,351.04,195.71,339.9,171.36z"/>
</svg>
